<svg xmlns="http://www.w3.org/2000/svg" xmlns:xlink="http://www.w3.org/1999/xlink" width="1024" height="1024"><path fill="#fff" d="M510.532 233.359C516.702 225.423 524.01 217.79 531.598 211.201C560.634 185.985 596.578 173.225 635.081 176.058Q636.581 176.174 638.077 176.327Q639.574 176.48 641.066 176.669Q642.558 176.857 644.046 177.082Q645.533 177.307 647.014 177.568Q648.496 177.829 649.97 178.126Q651.445 178.423 652.912 178.755Q654.379 179.088 655.838 179.455Q657.296 179.823 658.745 180.226Q660.195 180.629 661.634 181.067Q663.073 181.506 664.501 181.978Q665.929 182.451 667.345 182.958Q668.761 183.466 670.164 184.007Q671.568 184.549 672.958 185.124Q674.348 185.699 675.723 186.308Q677.099 186.917 678.459 187.559Q679.819 188.201 681.164 188.875Q682.508 189.55 683.836 190.257Q685.163 190.964 686.474 191.703Q687.784 192.442 689.076 193.213Q690.368 193.984 691.64 194.785Q692.913 195.587 694.166 196.419Q695.419 197.251 696.652 198.114Q697.884 198.976 699.095 199.868Q700.307 200.76 701.496 201.681Q702.685 202.602 703.852 203.552Q705.018 204.502 706.161 205.479Q707.305 206.457 708.424 207.462Q709.543 208.467 710.638 209.499Q711.732 210.53 712.801 211.589Q713.871 212.647 714.914 213.73Q715.957 214.814 716.974 215.922Q717.99 217.031 718.98 218.164C742.867 245.959 752.052 280.159 749.263 316.3C743.15 395.53 669.519 464.443 612.776 512.838C606.87 516.962 601.366 522.119 595.683 526.602Q571.076 546.184 545.506 564.49C537.007 570.645 528.252 577.61 519.046 582.637C516.761 583.885 514.037 585.049 511.437 585.322C508.701 585.609 505.782 583.935 503.537 582.548C496.956 578.481 491.137 572.821 484.876 568.238Q453.652 545.603 423.551 521.495C361.228 471.061 284.289 401.862 275.674 316.689C272.221 282.554 281.253 248.37 303.241 221.714C328.034 191.655 359.133 179.405 397.042 175.701C406.89 176.35 416.351 176.035 426.178 177.619C464.306 183.762 488.506 202.758 510.532 233.359ZM511.588 432.55L484.847 324.184L476.706 291.683C475.147 285.583 473.865 279.092 471.576 273.219C470.852 271.363 469.516 269.946 467.796 268.958C464.596 267.121 460.462 267.004 457.005 268.133C454.298 269.017 451.842 270.689 450.561 273.28C448.179 278.098 446.772 283.85 445.222 289.008C442.479 298.133 439.918 307.319 437.115 316.423C430.415 338.186 422.65 359.626 415.808 381.35C412.217 374.466 403.68 360.19 396.094 357.745C388.667 355.351 333.135 355.874 323.467 357.107C321.286 362.208 319.615 368.083 321.642 373.532Q321.835 374.064 322.081 374.573Q322.328 375.082 322.626 375.564Q322.923 376.045 323.269 376.493Q323.615 376.941 324.004 377.351Q324.394 377.761 324.824 378.129Q325.254 378.496 325.72 378.818Q326.185 379.14 326.681 379.412Q327.178 379.684 327.699 379.903C339.359 384.751 379.588 376.6 387.024 381.755C389.55 383.506 391.241 387.281 392.754 389.883Q396.624 396.515 400.671 403.042C405.923 411.487 412.793 422.828 424.571 417.443C430.339 414.806 432.388 409.866 434.355 404.213C443.379 378.287 451.223 351.86 459.745 325.763C461.067 333.577 463.387 341.146 465.095 348.874C473.526 380.586 480.595 412.716 488.408 444.588Q491.19 455.795 493.859 467.03C495.087 472.156 496.088 477.547 498.011 482.461C499.23 485.575 500.609 487.997 503.645 489.636C507.05 491.474 511.57 491.526 515.193 490.317C516.707 489.812 518.13 489.003 519.488 488.177C523.986 481.374 530.745 451.238 533.489 441.079L546.75 392.585L558.371 350.165C560.868 341.158 563.662 332.148 565.704 323.028C570.599 344.782 576.379 366.312 582.03 387.88C584.386 396.874 586.87 409.73 590.215 418.076C591.619 421.58 594.052 425.362 597.233 427.478Q597.772 427.838 598.345 428.14Q598.919 428.442 599.52 428.683Q600.122 428.924 600.745 429.102Q601.369 429.279 602.007 429.391Q602.645 429.503 603.292 429.548Q603.938 429.593 604.586 429.571Q605.234 429.549 605.876 429.46Q606.518 429.371 607.147 429.216C622.139 425.459 635.815 385.44 645.703 381.964C650.481 380.284 687.253 381.379 695.388 381.266C699.293 378.954 702.476 376.481 703.611 371.818C704.444 368.395 704.118 363.594 702.213 360.545C700.894 358.434 699.061 357.396 696.654 356.95C686.583 355.082 675.415 356.365 665.202 356.408C656.606 356.445 647.186 355.624 638.711 356.968C636.474 357.323 635.23 357.852 633.414 359.144C624.785 365.285 615.072 380.149 609.353 389.298C605.284 378.717 602.931 367.216 600.078 356.249Q592.893 328.838 585.991 301.353C584.124 293.791 581.043 277.974 578.002 271.761C576.921 269.553 574.708 267.812 572.489 266.86C569.193 265.447 565.833 265.376 562.322 265.681C558.272 267.208 555.387 268.908 553.434 272.982C550.335 279.445 548.988 287.619 547.092 294.564Q540.866 317.27 534.878 340.039C529.142 361.655 523.155 383.183 517.753 404.89C515.51 413.901 512.306 423.269 511.588 432.55Z"/><path fill="#fff" d="M783.792 568.694C785.3 568.484 786.814 568.562 788.327 568.692C795.849 569.341 803.894 572.749 808.713 578.738C812.219 583.094 813.44 588.294 812.817 593.798C811.464 605.733 801.469 621.893 795.691 632.397C766.758 684.993 732.276 735.639 684.31 772.649C658.84 792.301 631.102 806.972 601.653 819.673C584.056 827.263 565.486 835.284 546.601 839.004C508.45 846.52 471.92 835.908 435.989 823.836Q412.036 815.807 388.363 806.988C371.748 800.797 355.195 794.315 338.388 788.664C329.605 785.71 320.088 782.322 310.867 781.24C294.378 779.305 269.626 791.065 255.009 799.132C249.436 802.207 243.824 806.236 237.866 808.453Q236.612 808.915 235.309 809.214Q234.006 809.513 232.676 809.644Q231.346 809.776 230.01 809.738Q228.674 809.7 227.353 809.493C223.965 808.983 220.727 807.716 218.728 804.819C217.106 802.467 216.186 799.675 215.445 796.938C213.62 790.196 212.404 783.252 210.857 776.44L200.118 728.271C197.272 715.505 193.324 702.886 190.653 690.131C190.019 687.105 188.836 681.844 189.579 678.828C190.322 675.807 193.299 672.587 195.525 670.463C200.584 665.64 207.168 661.783 212.713 657.431C235.751 639.351 259.048 621.352 284.274 606.415C292.25 602.802 299.475 598.653 307.893 595.874C325.681 590.001 342.687 588.763 361.189 590.942C373.315 592.37 385.198 594.715 396.755 598.727C426.205 608.95 452.416 626.726 482.503 635.729C513.341 644.957 546.877 644.812 578.707 648.059C592.858 649.502 604.622 653.378 613.842 664.881C619.497 671.936 623.573 682.406 622.398 691.529C621.534 698.235 617.73 703.288 612.539 707.357C603.564 714.394 591.704 718.359 580.618 720.416C549 726.284 516.359 720.401 485.097 714.823C476.116 713.221 467.093 711.324 458.042 710.181C450.193 709.19 425.131 708.396 419.106 713.546C418.264 714.266 418.295 714.519 418.2 715.551C418.438 715.885 418.6 716.29 418.915 716.552C420.43 717.814 438.097 718.717 441.641 719.584C446.114 720.678 450.705 721.301 455.149 722.512C468.766 726.222 481.844 730.472 495.802 732.906C521.145 737.327 542.687 738.602 568.315 737.253C579.332 736.672 590.725 735.868 601.293 732.509Q603.561 731.785 605.766 730.884Q607.97 729.984 610.096 728.912Q612.222 727.84 614.258 726.604Q616.293 725.368 618.224 723.975C629.605 715.893 637.76 703.585 639.963 689.697C641.919 677.371 638.197 666.186 630.929 656.327C634.643 652.134 640.009 648.551 644.426 645.043C650.568 640.164 656.533 635.192 662.333 629.913C674.33 618.992 685.451 605.354 697.842 595.282C702.837 591.222 708.292 587.69 714.367 585.481C720.752 583.159 728.918 581.891 735.221 585.031C739.199 587.012 740.519 590.54 741.812 594.49C754.635 581.339 764.614 570.578 783.792 568.694Z"/></svg>